<?xml version="1.0" encoding="utf-8"?>
<!-- Generator: Adobe Illustrator 28.3.0, SVG Export Plug-In . SVG Version: 6.00 Build 0)  -->
<svg version="1.1" id="Layer_1" xmlns="http://www.w3.org/2000/svg" xmlns:xlink="http://www.w3.org/1999/xlink" x="0px" y="0px"
	 viewBox="0 0 282 47.4" style="enable-background:new 0 0 282 47.4;" xml:space="preserve">
<style type="text/css">
	.st0{fill:#0067B9;}
</style>
<g>
	<g id="Text">
		<path class="st0" d="M63.2,32c-0.2,0-0.4-0.1-0.4-0.3l-5.4-15.8c0,0,0-0.1,0-0.2c0-0.2,0.1-0.3,0.3-0.3h3.2c0.2,0,0.4,0.1,0.4,0.3
			l2.4,7.5c0.3,0.9,0.7,2.4,1.3,4.5h0.1c0.6-2.1,1-3.6,1.3-4.5l2.4-7.6c0.1-0.2,0.2-0.3,0.5-0.3h3.1c0.1,0,0.2,0,0.3,0.1
			s0.1,0.1,0.1,0.2c0,0,0,0.1,0,0.2l-5.5,15.9c-0.1,0.2-0.2,0.3-0.4,0.3H63.2L63.2,32z"/>
		<path class="st0" d="M90.9,25.7c0,2.1-0.6,3.7-1.8,4.9s-2.9,1.7-5,1.7s-3.8-0.6-5-1.7s-1.8-2.8-1.8-4.9v-4c0-2.1,0.6-3.7,1.8-4.8
			c1.2-1.2,2.9-1.7,5-1.7s3.8,0.6,5,1.7c1.2,1.2,1.8,2.8,1.8,4.8V25.7z M81.2,25.6c0,1,0.2,1.8,0.7,2.3c0.5,0.6,1.2,0.8,2.2,0.8
			c2,0,3-1,3-3.1v-3.9c0-2.1-1-3.1-3-3.1c-1,0-1.7,0.3-2.2,0.8s-0.7,1.3-0.7,2.3V25.6L81.2,25.6z"/>
		<path class="st0" d="M106.1,32c-0.2,0-0.4-0.1-0.5-0.3l-3.2-5.3h-1.5v5.1c0,0.3-0.1,0.4-0.4,0.4h-2.9c-0.3,0-0.4-0.1-0.4-0.4V15.8
			c0-0.3,0.1-0.4,0.4-0.4h5.7c2,0,3.5,0.5,4.6,1.5s1.6,2.4,1.6,4.1c0,1.2-0.3,2.2-0.9,3s-1.4,1.5-2.5,1.9l3.7,5.6
			c0,0.1,0.1,0.2,0.1,0.2c0,0.2-0.1,0.3-0.3,0.3L106.1,32L106.1,32z M100.9,18.8v4.4h2.2c0.9,0,1.5-0.2,1.9-0.5s0.6-0.9,0.6-1.7
			c0-0.7-0.2-1.3-0.6-1.7s-1-0.5-1.9-0.5L100.9,18.8L100.9,18.8z"/>
		<path class="st0" d="M126.7,15.4c0.3,0,0.4,0.1,0.4,0.4v2.7c0,0.3-0.1,0.4-0.4,0.4h-4.3v12.7c0,0.3-0.1,0.4-0.4,0.4h-2.9
			c-0.3,0-0.4-0.1-0.4-0.4V18.8h-4.3c-0.3,0-0.4-0.1-0.4-0.4v-2.7c0-0.3,0.1-0.4,0.4-0.4L126.7,15.4L126.7,15.4z"/>
		<path class="st0" d="M136.1,31.6c0,0.3-0.1,0.4-0.4,0.4h-2.9c-0.3,0-0.4-0.1-0.4-0.4V15.8c0-0.3,0.1-0.4,0.4-0.4h2.9
			c0.3,0,0.4,0.1,0.4,0.4V31.6z"/>
		<path class="st0" d="M155.4,31.5c0,0.1,0.1,0.1,0.1,0.2c0,0.2-0.1,0.3-0.3,0.3h-3.4c-0.2,0-0.4-0.1-0.5-0.3l-1.9-3.5l2-3.4
			L155.4,31.5L155.4,31.5z M148.6,26.8l-3,4.9c-0.1,0.2-0.3,0.3-0.5,0.3h-3.4c-0.1,0-0.2,0-0.3-0.1s-0.1-0.1-0.1-0.2s0-0.1,0.1-0.2
			l4.7-7.8l-4.3-7.8c0-0.1-0.1-0.1-0.1-0.2s0-0.1,0.1-0.2s0.2-0.1,0.3-0.1h3.3c0.2,0,0.4,0.1,0.5,0.3l4.7,7.8L148.6,26.8L148.6,26.8
			z M149.5,19l1.5-3.3c0.1-0.2,0.2-0.3,0.5-0.3h3.3c0.2,0,0.3,0.1,0.3,0.3c0,0.1,0,0.2,0,0.2l-1.3,2.4l-2.3,3.9L149.5,19L149.5,19z"
			/>
		<path class="st0" d="M166,32c-0.3,0-0.4-0.1-0.4-0.4V15.8c0-0.3,0.1-0.4,0.4-0.4h3.3c0.2,0,0.4,0.1,0.5,0.3l2.1,4
			c0.5,1.1,1.2,2.6,2.1,4.6h0.1c0.2-0.6,0.6-1.4,1-2.3s0.8-1.7,1.1-2.3l2.1-4c0.1-0.2,0.2-0.3,0.5-0.3h3.3c0.3,0,0.4,0.1,0.4,0.4
			v15.8c0,0.3-0.1,0.4-0.4,0.4h-3c-0.3,0-0.4-0.1-0.4-0.4v-3.1c0-2.2,0.1-4.7,0.2-7.4h-0.1c-0.6,1.4-1.3,3-2.1,4.7l-1.1,2.3
			c-0.1,0.2-0.2,0.3-0.5,0.3h-2.2c-0.2,0-0.4-0.1-0.5-0.3l-1.2-2.3c-0.8-1.7-1.5-3.3-2.1-4.7H169c0.2,2.7,0.2,5.2,0.2,7.4v3.1
			c0,0.3-0.1,0.4-0.4,0.4L166,32L166,32z"/>
		<path class="st0" d="M199.8,28.6c0.3,0,0.4,0.1,0.4,0.4v2.6c0,0.3-0.1,0.4-0.4,0.4h-10.2c-0.3,0-0.4-0.1-0.4-0.4V15.8
			c0-0.3,0.1-0.4,0.4-0.4h9.9c0.3,0,0.4,0.1,0.4,0.4v2.6c0,0.3-0.1,0.4-0.4,0.4H193V22h5.8c0.3,0,0.4,0.1,0.4,0.4v2.5
			c0,0.3-0.1,0.4-0.4,0.4H193v3.4L199.8,28.6L199.8,28.6z"/>
		<path class="st0" d="M206.7,32c-0.3,0-0.4-0.1-0.4-0.4V15.8c0-0.3,0.1-0.4,0.4-0.4h5.7c2,0,3.6,0.5,4.8,1.5s1.8,2.7,1.8,5v3.7
			c0,2.3-0.6,3.9-1.8,4.9s-2.8,1.5-4.8,1.5H206.7z M212.4,28.5c0.9,0,1.6-0.2,2-0.7c0.4-0.4,0.7-1.1,0.7-2.1v-4c0-1-0.2-1.7-0.7-2.1
			c-0.4-0.5-1.1-0.7-2-0.7H210v9.6L212.4,28.5L212.4,28.5z"/>
		<path class="st0" d="M229,31.6c0,0.3-0.1,0.4-0.4,0.4h-2.9c-0.3,0-0.4-0.1-0.4-0.4V15.8c0-0.3,0.1-0.4,0.4-0.4h2.9
			c0.3,0,0.4,0.1,0.4,0.4V31.6z"/>
		<path class="st0" d="M247.3,30.6c-1.5,1.1-3.3,1.7-5.3,1.7c-2.1,0-3.7-0.5-5-1.6c-1.2-1.1-1.8-2.6-1.8-4.6v-4.9
			c0-2,0.6-3.5,1.8-4.6s2.9-1.6,4.9-1.6c0.9,0,1.8,0.1,2.7,0.4s1.6,0.6,2.3,1.1c0.1,0.1,0.2,0.2,0.2,0.3c0,0,0,0.1-0.1,0.2l-1.5,2.2
			c-0.1,0.1-0.2,0.2-0.3,0.2c0,0-0.1,0-0.3-0.1c-0.4-0.3-0.9-0.5-1.4-0.6s-1-0.2-1.6-0.2c-1,0-1.7,0.3-2.2,0.8s-0.8,1.2-0.8,2v4.6
			c0,0.9,0.3,1.6,0.8,2.1s1.3,0.7,2.2,0.7c1.2,0,2.3-0.3,3.2-1c0.1-0.1,0.2-0.1,0.3-0.1s0.2,0.1,0.3,0.2l1.5,2.2
			c0.1,0.1,0.1,0.2,0.1,0.3C247.4,30.5,247.3,30.6,247.3,30.6L247.3,30.6z"/>
		<path class="st0" d="M251.6,32c-0.2,0-0.3,0-0.3-0.1c-0.1-0.1-0.1-0.2,0-0.3l5.4-15.8c0.1-0.2,0.2-0.3,0.4-0.3h3.5
			c0.2,0,0.4,0.1,0.4,0.3l5.4,15.8c0,0.1,0,0.2,0,0.2c0,0.1,0,0.1-0.1,0.2s-0.2,0.1-0.3,0.1h-3.1c-0.2,0-0.4-0.1-0.5-0.3l-0.9-2.8
			h-5.7l-0.7,2.7c-0.1,0.2-0.2,0.3-0.5,0.3H251.6L251.6,32z M258.8,19.4l-0.6,2c-0.4,1.3-0.8,2.7-1.2,4.1h3.7
			c-0.2-0.7-0.7-2.2-1.4-4.6L258.8,19.4L258.8,19.4z"/>
		<path class="st0" d="M272,32c-0.3,0-0.4-0.1-0.4-0.4V15.8c0-0.3,0.1-0.4,0.4-0.4h2.9c0.3,0,0.4,0.1,0.4,0.4v12.7h6.3
			c0.3,0,0.4,0.1,0.4,0.4v2.7c0,0.3-0.1,0.4-0.4,0.4H272L272,32z"/>
	</g>
	<g id="Logo">
		<path class="st0" d="M17.8,0h11.9c0.4,0,0.9,0,1.3,0l-0.6,1l0,0l-1.1,2H17.8c-4.1,0-7.7,1.7-10.4,4.3s-4.3,6.4-4.3,10.4v12
			c0,3,0.9,5.8,2.5,8.1L4,40.6c-2.5-3-3.9-6.8-3.9-10.9v-12c0-4.9,2-9.3,5.2-12.5S13,0,17.8,0z M34.2,0.6c3.1,0.8,5.9,2.4,8.1,4.6
			c3.2,3.2,5.2,7.6,5.2,12.5v12c0,4.9-2,9.3-5.2,12.5s-7.6,5.2-12.5,5.2h-12c-4.5,0-8.6-1.7-11.8-4.5l1.5-2.7
			c2.7,2.6,6.3,4.2,10.2,4.2h11.9c4.1,0,7.7-1.7,10.4-4.3s4.5-6.4,4.5-10.4v-12c0-4.1-1.7-7.7-4.3-10.4c-2-2-4.6-3.5-7.5-4l0.4-0.8
			l0,0L34.2,0.6L34.2,0.6z"/>
		<path class="st0" d="M6.4,6.9l2.8,4.8l0,0l9.3,16.1l2.7-4.7l1.7,3l-4.4,7.7L6.6,13.2l0,0L3.9,8.4L6.4,6.9L6.4,6.9z M22.1,21.6
			l1.7-3l1.7,3l-1.7,3L22.1,21.6L22.1,21.6z M24.7,17.1l9-15.5l2.6,1.5l-9.8,17L24.7,17.1L24.7,17.1z"/>
		<path class="st0" d="M2.5,37.1L6.6,30l0,0l4-6.9l1.7,3l-3.2,5.5l0,0l-4.1,7L2.5,37.1L2.5,37.1z M11.5,21.6l1.7-3l1.7,3l-1.7,3
			L11.5,21.6L11.5,21.6z M14,17.1l4.4-7.7l10.7,18.4L39.7,9.4l7.6,13.1L44.7,24l-5-8.7L29.1,33.8L18.5,15.4l-2.7,4.7L14,17.1
			L14,17.1z"/>
	</g>
</g>
</svg>
