<?xml version="1.0" encoding="utf-8"?>
<!-- Generator: Adobe Illustrator 28.3.0, SVG Export Plug-In . SVG Version: 6.00 Build 0)  -->
<svg version="1.1" id="Layer_1" xmlns="http://www.w3.org/2000/svg" xmlns:xlink="http://www.w3.org/1999/xlink" x="0px" y="0px"
	 viewBox="0 0 36 36" style="enable-background:new 0 0 36 36;" xml:space="preserve">
<style type="text/css">
	.st0{fill:#1A68B2;}
</style>
<g id="Logo">
	<path class="st0" d="M13.5,0h9.1c0.3,0,0.7,0,1,0l-0.4,0.7v0l-0.9,1.5h-8.8c-3.1,0-5.9,1.3-7.9,3.3s-3.3,4.8-3.3,7.9v9.1
		c0,2.3,0.7,4.4,1.9,6.2l-1.2,2.1C1.1,28.6,0,25.7,0,22.5v-9C0,9.8,1.5,6.4,4,4C6.4,1.5,9.8,0,13.5,0z M25.9,0.4
		C28.3,1,30.4,2.3,32,4c2.4,2.4,4,5.8,4,9.5v9.1c0,3.7-1.5,7.1-4,9.5c-2.4,2.4-5.8,3.9-9.5,3.9h-9.1c-3.4,0-6.6-1.3-8.9-3.4l1.2-2
		c2,2,4.8,3.2,7.8,3.2h9.1c3.1,0,5.9-1.3,7.9-3.3s3.3-4.8,3.3-7.9v-9.1c0-3.1-1.3-5.9-3.3-7.9c-1.5-1.5-3.5-2.6-5.7-3.1l0.3-0.6h0
		L25.9,0.4L25.9,0.4z"/>
	<path class="st0" d="M4.8,5.2l2.1,3.6h0L14,21.1l2.1-3.6l1.3,2.3L14,25.6L4.9,10v0L2.8,6.4L4.8,5.2L4.8,5.2z M16.7,16.4l1.3-2.3
		l1.3,2.3L18,18.7L16.7,16.4L16.7,16.4z M18.7,13l6.8-11.8l2,1.1L20,15.3L18.7,13L18.7,13z"/>
	<path class="st0" d="M1.8,28.2l3.1-5.4v0l3-5.3l1.3,2.3l-2.4,4.1h0l-3.1,5.4L1.8,28.2L1.8,28.2z M8.6,16.4l1.3-2.3l1.3,2.3
		l-1.3,2.3L8.6,16.4L8.6,16.4z M10.6,13L14,7.2l8.1,14l8.1-14l5.8,10l-2,1.1l-3.8-6.6l-8.1,14l-8.1-14l-2.1,3.6L10.6,13L10.6,13z"/>
</g>
</svg>
