<?xml version="1.0" encoding="utf-8"?>
<!-- Generator: Adobe Illustrator 28.3.0, SVG Export Plug-In . SVG Version: 6.00 Build 0)  -->
<svg version="1.1" id="Layer_1" xmlns="http://www.w3.org/2000/svg" xmlns:xlink="http://www.w3.org/1999/xlink" x="0px" y="0px"
	 viewBox="0 0 36 36" style="enable-background:new 0 0 36 36;" xml:space="preserve">
<style type="text/css">
	.st0{fill:#FFFFFF;}
</style>
<g>
	<path class="st0" d="M7.6,24.2h7.9c0.2,0,0.4,0.1,0.4,0.3v2c0,0.2-0.1,0.4-0.4,0.4H4.9c-0.2,0-0.3-0.1-0.3-0.4V9.6
		c0-0.2,0.1-0.4,0.3-0.4h10.3c0.2,0,0.4,0.1,0.4,0.4v2c0,0.2-0.1,0.3-0.4,0.3H7.6v4.6h7c0.2,0,0.4,0.1,0.4,0.4v1.9
		c0,0.2-0.1,0.4-0.4,0.4h-7V24.2z"/>
	<path class="st0" d="M24.6,27.1c-2.5,0-4.3-0.7-6.3-2.4c-0.1-0.1-0.2-0.3-0.1-0.5l1.3-1.7c0.1-0.1,0.3-0.2,0.5-0.1
		c1.6,1.2,3,1.9,4.8,1.9c1.8,0,3.6-0.7,3.6-2.5c0-1.8-1.9-2.2-4-2.7c-2.6-0.5-6-1.7-6-5.4c0-3.4,3-4.9,6.5-4.9
		c2.1,0,3.8,0.6,5.8,1.9c0.2,0.1,0.2,0.3,0.1,0.5L29.5,13c-0.1,0.2-0.3,0.2-0.5,0.1c-1.3-0.8-2.8-1.3-4.3-1.3
		c-2.1,0-3.3,0.8-3.3,2.2c0,1.6,1.6,2,3.7,2.5c2.9,0.7,6.3,1.6,6.3,5.4C31.3,25.6,28.2,27.1,24.6,27.1z"/>
</g>
</svg>
