<?xml version="1.0" encoding="utf-8"?>
<!-- Generator: Adobe Illustrator 28.3.0, SVG Export Plug-In . SVG Version: 6.00 Build 0)  -->
<svg version="1.1" id="Layer_1" xmlns="http://www.w3.org/2000/svg" xmlns:xlink="http://www.w3.org/1999/xlink" x="0px" y="0px"
	 viewBox="0 0 36 36" style="enable-background:new 0 0 36 36;" xml:space="preserve">
<style type="text/css">
	.st0{fill:#FFFFFF;}
</style>
<g>
	<path class="st0" d="M10.8,9.8c3.6,0,5.8,2.1,5.8,5.6c0,3.6-2.2,5.6-5.8,5.6H7.4v4.8c0,0.2-0.1,0.3-0.3,0.3H5
		c-0.2,0-0.3-0.1-0.3-0.3V10.1c0-0.2,0.1-0.3,0.3-0.3H10.8z M10.5,18.4c2.2,0,3.3-0.9,3.3-3.1c0-2.1-1.1-3.1-3.3-3.1H7.4v6.1H10.5z"
		/>
	<path class="st0" d="M28.5,26.2c-0.2,0-0.3-0.1-0.4-0.2l-4-5.8H22v5.7c0,0.2-0.1,0.3-0.3,0.3h-2.1c-0.2,0-0.3-0.1-0.3-0.3V10.1
		c0-0.2,0.1-0.3,0.3-0.3h5.3c3.8,0,6,1.9,6,5.2c0,2.6-1.4,4.3-3.8,4.9l4.2,5.9c0.2,0.3,0.1,0.4-0.2,0.4L28.5,26.2L28.5,26.2z
		 M22,12.3v5.4h2.9c2.2,0,3.2-0.8,3.2-2.7c0-1.9-1-2.7-3.2-2.7C24.9,12.3,22,12.3,22,12.3z"/>
</g>
</svg>
